<?xml version="1.0" standalone="no"?>
<!DOCTYPE svg PUBLIC "-//W3C//DTD SVG 20010904//EN"
 "http://www.w3.org/TR/2001/REC-SVG-20010904/DTD/svg10.dtd">
<svg version="1.0" xmlns="http://www.w3.org/2000/svg"
 width="2016.000000pt" height="2016.000000pt" viewBox="0 0 2016.000000 2016.000000"
 preserveAspectRatio="xMidYMid meet">
<metadata>
Created by potrace 1.11, written by Peter Selinger 2001-2013
</metadata>
<g transform="translate(0.000000,2016.000000) scale(0.100000,-0.100000)"
fill="#000000" stroke="none">
<path d="M13339 20123 c0 -21 -1 -57 -2 -81 -1 -23 2 -42 6 -42 5 0 5 -5 1
-11 -9 -16 -11 -469 -1 -469 5 0 5 -5 1 -11 -9 -16 -11 -469 -1 -469 5 0 5 -5
1 -11 -10 -16 -11 -229 -1 -229 5 0 5 -5 1 -12 -10 -16 -11 -148 -1 -148 5 0
5 -5 1 -12 -10 -16 -11 -148 -1 -148 5 0 5 -5 1 -12 -10 -16 -11 -148 -1 -148
5 0 5 -5 1 -11 -10 -17 -11 -229 -1 -229 5 0 5 -5 1 -11 -9 -16 -11 -469 -1
-469 5 0 5 -5 1 -11 -9 -16 -11 -469 -1 -469 5 0 5 -5 1 -11 -10 -16 -11 -229
-1 -229 5 0 5 -5 1 -12 -10 -16 -11 -148 -1 -148 5 0 5 -5 1 -12 -10 -16 -11
-148 -1 -148 5 0 5 -5 1 -12 -10 -16 -11 -148 -1 -148 5 0 5 -5 1 -11 -10 -17
-11 -229 -1 -229 5 0 5 -5 1 -11 -9 -16 -11 -469 -1 -469 5 0 5 -5 1 -11 -9
-16 -11 -469 -1 -469 5 0 5 -5 1 -11 -9 -16 -11 -309 -1 -309 5 0 5 -5 1 -11
-9 -16 -11 -469 -1 -469 5 0 5 -5 1 -11 -9 -16 -11 -469 -1 -469 5 0 5 -5 1
-11 -10 -16 -11 -229 -1 -229 5 0 5 -5 1 -12 -10 -16 -11 -148 -1 -148 5 0 5
-5 1 -12 -10 -16 -11 -148 -1 -148 5 0 5 -5 1 -12 -10 -16 -11 -148 -1 -148 5
0 5 -5 1 -11 -10 -17 -11 -229 -1 -229 5 0 5 -5 2 -10 -4 -6 -8 -140 -10 -298
-1 -158 -5 -307 -8 -332 -3 -25 -8 -70 -12 -100 -3 -30 -8 -73 -11 -95 -3 -22
-6 -47 -6 -55 0 -8 -11 -49 -25 -90 -14 -41 -26 -79 -27 -85 -1 -5 -4 -14 -8
-20 -3 -5 -11 -28 -17 -50 -10 -34 -25 -50 -103 -107 -58 -43 -102 -68 -120
-69 -27 -1 -45 -4 -50 -9 -3 -2 -11 -3 -68 -16 -19 -4 -129 -8 -245 -8 -200
-2 -215 0 -310 26 -55 15 -120 34 -144 43 -24 8 -46 13 -48 11 -2 -2 -6 -19
-8 -37 -10 -93 -16 -136 -20 -159 -3 -14 -8 -52 -11 -85 -3 -33 -8 -73 -10
-90 -3 -16 -6 -43 -8 -60 -2 -16 -7 -55 -11 -85 -4 -30 -9 -66 -10 -80 -7 -54
-15 -127 -20 -160 -2 -19 -7 -57 -10 -85 -4 -27 -9 -63 -11 -80 -3 -16 -7 -57
-9 -90 -2 -33 -5 -60 -5 -60 -3 0 -11 -54 -14 -95 -2 -25 -5 -45 -6 -45 -1 0
-3 -22 -5 -50 -2 -27 -4 -50 -5 -50 -1 0 -3 -16 -5 -35 -1 -19 -5 -59 -9 -87
-3 -29 -8 -77 -12 -105 -3 -29 -7 -66 -9 -83 -2 -16 -7 -60 -10 -97 -3 -37 -8
-77 -10 -90 -9 -56 -21 -142 -30 -228 -2 -14 -4 -27 -5 -30 -1 -3 -2 -8 -1
-13 1 -4 -4 -38 -9 -75 -6 -37 -12 -83 -14 -102 -5 -39 -12 -102 -26 -205 -5
-38 -12 -92 -15 -120 -3 -27 -9 -63 -12 -80 -3 -16 -7 -41 -8 -55 -4 -40 -16
-132 -20 -165 -3 -16 -7 -52 -11 -80 -3 -27 -7 -61 -8 -75 -2 -14 -7 -52 -10
-85 -4 -33 -9 -67 -11 -75 -2 -8 -6 -42 -10 -75 -7 -63 -34 -266 -40 -300 -2
-11 -6 -42 -10 -70 -3 -27 -9 -57 -11 -65 -3 -8 -8 -33 -11 -55 -3 -22 -10
-46 -15 -52 -6 -7 -8 -13 -5 -13 21 0 -59 -177 -85 -188 -5 -2 -8 -9 -8 -16 0
-7 -12 -22 -26 -32 -14 -10 -31 -24 -38 -29 -55 -50 -169 -137 -183 -140 -10
-2 -38 -12 -63 -21 -65 -25 -215 -21 -294 7 -51 18 -75 36 -144 106 -77 78
-85 90 -102 151 -24 92 -29 121 -36 237 -3 55 -8 129 -10 165 -2 36 -6 94 -8
130 -16 215 -23 497 -13 506 4 4 2 13 -4 20 -6 8 -7 14 0 18 6 4 8 12 6 19 -9
28 -12 86 -4 98 4 7 3 19 -2 25 -6 7 -6 15 -1 18 4 2 5 30 2 61 -3 31 -3 58 0
60 4 2 4 25 0 50 -4 25 -3 45 2 45 5 0 6 5 3 11 -6 9 -9 108 -4 134 1 6 1 14
0 18 -1 4 -4 63 -7 130 -3 67 -7 140 -9 162 -2 22 -6 92 -10 155 -4 63 -8 142
-10 175 -2 33 -7 105 -9 160 -6 96 -10 173 -20 315 -3 36 -8 112 -11 170 -3
58 -7 137 -10 176 -3 39 -7 116 -10 170 -3 54 -7 140 -10 189 -3 50 -7 122 -9
161 -2 39 -6 76 -10 83 -4 6 -3 11 3 11 6 0 8 6 6 13 -4 10 -12 101 -14 160
-1 16 -28 17 -431 17 -337 0 -430 -3 -431 -12 -1 -7 -3 -22 -4 -33 -3 -21 -17
-238 -19 -292 -1 -18 -5 -35 -8 -38 -4 -4 -3 -17 2 -30 5 -13 7 -25 4 -28 -5
-5 -11 -65 -18 -197 -3 -47 -8 -123 -11 -169 -3 -45 -8 -117 -10 -160 -5 -79
-11 -173 -20 -301 -2 -41 -7 -131 -11 -200 -4 -69 -7 -136 -8 -150 -1 -14 -5
-31 -9 -38 -5 -7 -3 -12 3 -12 6 0 9 -4 6 -9 -3 -5 -8 -53 -11 -107 -3 -55 -8
-139 -10 -189 -3 -49 -7 -124 -10 -165 -5 -86 -14 -228 -20 -345 -19 -350 -22
-397 -51 -660 -3 -33 -7 -73 -9 -90 -5 -52 -16 -159 -20 -188 -6 -47 -18 -170
-21 -212 -1 -22 -3 -40 -4 -40 -1 0 -3 -16 -5 -35 -11 -127 -17 -188 -21 -210
-4 -22 -15 -142 -17 -178 0 -13 -10 -12 -122 3 -22 3 -56 7 -75 9 -19 3 -35 5
-35 6 0 1 -25 3 -55 6 -30 3 -81 14 -114 26 -32 11 -63 21 -70 23 -6 1 -18 5
-26 8 -8 3 -37 13 -65 22 -27 9 -71 32 -97 51 -27 19 -52 34 -57 34 -5 0 -11
3 -13 8 -5 11 -66 52 -78 52 -5 0 -10 4 -10 9 0 5 -9 11 -20 14 -19 5 -38 39
-49 87 0 3 -14 42 -30 87 -17 45 -33 101 -35 125 -13 102 -18 145 -21 183 -3
38 -9 96 -21 210 -2 28 -6 70 -9 95 -3 42 -6 71 -21 218 -11 109 -13 137 -19
207 -2 39 -7 79 -9 90 -2 11 -7 61 -11 110 -5 50 -9 101 -11 115 -1 14 -5 51
-7 83 -3 32 -8 77 -11 100 -7 50 -14 109 -22 197 -9 94 -12 115 -14 115 0 0
-3 23 -5 50 -2 28 -6 70 -9 95 -3 25 -8 72 -11 105 -3 33 -8 80 -11 105 -6 48
-10 82 -19 170 -3 30 -7 73 -10 95 -3 22 -8 63 -11 90 -3 28 -7 68 -9 90 -6
49 -13 120 -21 200 -6 60 -9 86 -18 160 -3 22 -7 90 -11 150 -3 61 -8 144 -10
185 -3 41 -7 116 -10 165 -10 180 -16 259 -18 262 -2 1 -43 -14 -93 -33 -124
-51 -127 -51 -148 -58 -11 -4 -35 -9 -54 -12 -20 -3 -46 -10 -59 -15 -32 -12
-426 -12 -455 1 -13 5 -48 14 -79 20 -55 11 -58 13 -101 78 -24 37 -62 112
-85 167 -40 99 -55 164 -78 340 -6 50 -10 77 -20 136 -3 17 -7 47 -9 67 -2 20
-8 60 -12 87 -5 28 -9 130 -9 227 0 98 -4 178 -8 178 -5 0 -5 5 -1 12 10 16
11 148 1 148 -5 0 -5 5 -1 11 10 17 11 229 1 229 -5 0 -5 5 -1 11 9 16 11 309
1 309 -5 0 -5 5 -1 11 9 16 11 469 1 469 -5 0 -5 5 -1 11 9 16 11 629 1 629
-5 0 -5 5 -1 11 9 16 11 629 1 629 -5 0 -5 5 -1 11 9 16 11 629 1 629 -5 0 -5
5 -1 11 10 17 7 347 -11 1399 -11 589 -14 764 -19 1090 -3 184 -8 382 -11 440
-6 101 -8 128 -20 285 -3 39 -7 99 -10 135 -8 122 -15 195 -20 220 -3 14 -8
39 -10 55 -14 97 -30 150 -69 230 -45 92 -74 162 -74 180 -1 29 -22 8 -46 -44
-15 -33 -31 -63 -36 -66 -4 -3 -12 -20 -16 -37 -3 -18 -10 -39 -15 -48 -10
-20 -21 -51 -24 -70 -2 -8 -15 -49 -29 -90 -15 -41 -26 -76 -26 -77 0 -2 -1
-5 -1 -8 -1 -3 -3 -14 -4 -25 -1 -11 -3 -21 -5 -22 -1 -2 -3 -11 -5 -22 -2
-10 -9 -39 -15 -65 -6 -25 -12 -55 -14 -66 -2 -11 -9 -40 -16 -65 -7 -25 -14
-54 -16 -65 -2 -11 -7 -33 -11 -50 -4 -16 -7 -32 -8 -35 -1 -3 -4 -18 -8 -35
-4 -16 -10 -40 -12 -52 -3 -13 -7 -33 -11 -45 -3 -13 -7 -33 -10 -45 -2 -12
-16 -71 -30 -130 -28 -116 -31 -130 -40 -183 -4 -19 -11 -41 -17 -48 -5 -7 -7
-15 -5 -18 3 -3 0 -29 -8 -57 -13 -52 -16 -65 -30 -162 -5 -27 -9 -52 -9 -55
-1 -3 -5 -32 -9 -65 -5 -33 -10 -69 -13 -80 -7 -35 -11 -59 -18 -105 -3 -25
-9 -61 -12 -80 -3 -19 -7 -44 -8 -55 -2 -11 -4 -20 -5 -20 -1 0 -3 -13 -5 -30
-3 -33 -33 -226 -41 -265 -2 -14 -7 -43 -10 -65 -3 -22 -8 -49 -11 -60 -3 -11
-7 -36 -9 -55 -1 -19 -5 -46 -8 -60 -2 -14 -7 -43 -11 -65 -7 -51 -14 -92 -20
-130 -3 -16 -8 -43 -10 -60 -3 -16 -7 -46 -11 -65 -5 -33 -11 -72 -19 -130 -2
-14 -4 -26 -5 -27 -1 -2 -3 -11 -4 -20 -1 -10 -6 -40 -10 -68 -5 -27 -10 -60
-11 -72 -2 -12 -6 -34 -9 -50 -3 -15 -8 -52 -11 -82 -4 -30 -8 -61 -10 -70 -1
-9 -6 -50 -9 -91 -4 -41 -9 -91 -12 -110 -2 -19 -6 -57 -9 -85 -12 -137 -17
-193 -21 -230 -3 -22 -7 -62 -9 -90 -3 -27 -7 -72 -10 -100 -7 -70 -15 -151
-20 -213 -2 -28 -7 -73 -10 -100 -3 -26 -8 -72 -11 -102 -11 -125 -24 -252
-29 -305 -3 -22 -7 -67 -10 -100 -3 -33 -8 -82 -11 -110 -3 -27 -7 -72 -10
-100 -2 -27 -7 -70 -10 -95 -3 -25 -7 -65 -9 -90 -2 -25 -6 -72 -9 -105 -4
-33 -9 -85 -12 -115 -3 -30 -7 -71 -9 -90 -3 -19 -7 -53 -9 -75 -3 -22 -8 -58
-10 -80 -5 -37 -13 -105 -22 -195 -1 -19 -5 -46 -8 -60 -2 -14 -7 -54 -11 -90
-4 -36 -9 -78 -11 -95 -6 -42 -13 -199 -29 -700 -3 -93 -8 -242 -11 -330 -3
-88 -6 -220 -7 -292 -1 -73 -4 -133 -7 -133 -3 0 -6 -57 -6 -128 -2 -125 -6
-267 -20 -652 -4 -107 -8 -289 -8 -405 0 -192 3 -295 20 -665 3 -69 7 -187 7
-262 1 -76 4 -138 7 -138 3 0 6 -19 7 -42 1 -47 10 -152 17 -208 3 -19 8 -64
11 -100 5 -62 7 -83 19 -195 3 -27 8 -77 11 -110 3 -33 8 -78 10 -100 3 -22 7
-65 10 -95 7 -64 9 -78 18 -105 3 -11 8 -31 11 -45 13 -66 53 -246 69 -305 5
-22 11 -47 13 -55 8 -42 13 -67 17 -85 11 -42 59 -251 62 -268 3 -10 6 -26 9
-35 3 -9 8 -32 11 -51 7 -41 -4 -20 89 -176 82 -138 84 -142 132 -220 16 -27
33 -57 37 -65 4 -8 16 -28 27 -45 35 -53 54 -90 52 -97 -1 -5 3 -8 8 -8 6 0
15 -10 21 -22 5 -13 15 -32 22 -43 7 -11 34 -59 62 -105 27 -47 53 -87 57 -88
4 -2 8 -9 8 -16 0 -6 33 -46 73 -88 39 -42 106 -114 147 -159 41 -45 93 -100
115 -123 50 -53 268 -286 275 -295 3 -3 39 -35 80 -71 41 -36 80 -69 86 -75 6
-5 39 -35 74 -65 35 -30 84 -73 109 -95 25 -22 62 -54 81 -70 19 -17 50 -45
69 -63 19 -18 42 -38 51 -45 18 -13 134 -113 154 -134 6 -6 22 -26 36 -44 30
-39 205 -256 258 -318 20 -24 44 -54 52 -65 8 -12 23 -30 33 -41 10 -11 35
-41 55 -67 20 -27 40 -48 44 -48 4 0 8 -5 8 -10 0 -6 11 -23 25 -38 14 -15 69
-92 123 -172 53 -80 100 -146 104 -148 4 -2 8 -8 8 -13 0 -5 34 -58 75 -119
41 -61 75 -115 75 -120 0 -6 4 -10 8 -10 4 0 21 -22 37 -50 17 -27 33 -50 38
-50 4 0 7 -4 7 -9 0 -5 15 -42 34 -83 101 -221 126 -276 126 -287 0 -6 5 -11
11 -11 5 0 8 -4 4 -9 -3 -5 -1 -12 4 -15 14 -9 169 -457 185 -536 3 -14 12
-52 21 -85 9 -33 18 -69 20 -80 2 -11 9 -39 15 -63 6 -24 8 -47 5 -52 -3 -4
-1 -10 4 -12 5 -1 12 -28 15 -58 3 -30 7 -66 10 -80 3 -14 8 -45 10 -70 3 -25
7 -58 10 -75 5 -29 13 -92 20 -165 2 -19 8 -69 12 -110 11 -94 12 -1344 1
-1425 -4 -33 -9 -73 -11 -90 -2 -16 -9 -66 -15 -110 -6 -44 -13 -98 -15 -120
-5 -45 -14 -123 -22 -175 -3 -19 -7 -48 -9 -65 -9 -92 -20 -181 -31 -255 -4
-25 -8 -61 -10 -80 -5 -47 -11 -84 -18 -107 -3 -10 -8 -36 -12 -58 -3 -22 -9
-56 -12 -75 -4 -19 -7 -80 -7 -135 l1 -100 1164 0 1165 0 1 110 c0 60 -3 130
-8 155 -5 25 -10 55 -13 67 -2 13 -6 26 -8 30 -3 5 -8 33 -11 64 -4 31 -9 67
-11 80 -3 13 -7 47 -10 74 -2 28 -7 61 -9 75 -3 14 -8 50 -11 80 -2 30 -7 71
-10 90 -2 19 -7 58 -10 85 -3 28 -8 61 -10 75 -2 14 -7 50 -10 80 -3 30 -8 66
-10 80 -4 25 -14 107 -21 165 -1 17 -5 48 -8 70 -15 124 -27 247 -26 293 0 6
0 18 0 25 0 6 -2 32 -4 57 -17 203 -21 320 -21 630 1 314 5 425 20 508 2 13 7
53 11 90 3 37 8 76 10 87 3 11 7 45 9 75 3 30 8 66 11 80 3 14 7 41 9 60 4 33
15 92 21 115 4 13 13 50 18 72 2 10 11 45 19 78 9 33 19 74 22 90 3 17 7 35 9
40 5 20 38 121 46 140 4 11 27 79 50 150 24 72 56 159 73 195 17 36 31 67 32
70 7 21 27 68 35 80 6 8 12 21 15 27 15 37 18 49 17 56 -1 4 3 7 8 7 6 0 10 9
10 20 0 11 4 20 9 20 5 0 11 10 15 23 6 25 40 103 56 127 27 42 93 150 115
190 14 25 37 63 51 85 14 22 27 48 31 58 3 9 9 17 14 17 5 0 9 7 9 15 0 8 5
15 12 15 6 0 8 3 5 7 -4 3 -1 13 7 22 8 9 23 32 34 52 39 69 47 83 60 97 6 7
12 18 12 23 0 11 2 13 59 79 38 43 83 92 214 230 34 36 116 124 182 195 144
155 275 286 339 340 26 21 58 48 70 60 12 11 46 40 75 65 29 25 65 56 80 70
15 14 53 48 85 75 32 28 71 61 86 75 24 22 89 79 164 143 11 10 75 69 140 130
66 62 134 126 152 142 18 17 83 77 144 135 240 224 222 203 306 365 43 83 95
182 115 220 20 39 57 108 81 155 85 165 143 275 148 280 5 4 31 57 35 70 1 3
7 18 13 33 7 16 12 37 12 48 0 11 4 29 10 39 5 10 10 33 12 51 1 19 5 39 9 44
3 6 9 24 12 40 3 17 7 40 10 51 3 12 8 38 11 59 4 20 8 41 11 45 3 5 7 21 10
37 2 15 11 55 19 88 8 33 17 71 20 85 2 14 12 57 21 95 9 39 18 79 21 90 2 11
10 47 18 80 9 33 17 78 20 100 2 22 5 40 6 40 1 0 3 18 4 40 5 62 16 174 22
235 9 75 13 114 19 185 5 63 10 107 22 215 11 90 10 1320 -1 1510 -11 193 -13
246 -20 387 -2 62 -7 117 -10 122 -4 5 -2 12 4 16 6 4 7 12 3 18 -4 6 -8 39
-9 72 -4 102 -17 362 -29 605 -3 41 -7 122 -9 180 -5 99 -10 203 -22 420 -3
52 -7 138 -9 190 -6 132 -15 289 -19 325 -2 17 -7 55 -10 85 -4 30 -9 71 -11
90 -2 19 -6 58 -9 85 -3 28 -8 64 -10 80 -3 17 -8 62 -11 100 -4 39 -8 81 -11
95 -2 14 -6 48 -9 75 -3 28 -8 66 -12 85 -3 19 -7 49 -8 65 -11 125 -14 154
-20 185 -4 19 -8 53 -10 75 -2 22 -6 67 -10 100 -4 33 -9 71 -10 85 -2 14 -6
48 -9 75 -6 50 -11 87 -21 180 -4 28 -9 68 -11 90 -8 61 -12 95 -18 150 -4 45
-8 80 -21 180 -2 17 -7 53 -9 80 -3 28 -8 70 -11 95 -3 25 -8 61 -10 80 -14
111 -17 136 -22 143 -2 4 1 7 8 7 8 0 8 4 1 13 -6 6 -13 39 -16 72 -6 65 -11
109 -22 195 -4 30 -8 73 -10 95 -1 22 -4 40 -5 40 -1 0 -3 11 -4 25 -6 66 -17
168 -21 190 -2 14 -7 41 -9 60 -3 19 -7 49 -10 65 -3 17 -7 53 -10 80 -3 28
-8 61 -10 75 -2 14 -7 45 -10 70 -3 25 -7 55 -10 68 -5 30 -18 140 -19 170 -1
12 -3 22 -6 22 -3 0 -5 10 -6 23 0 12 -4 45 -8 72 -10 69 -23 170 -31 234 -4
30 -9 63 -11 75 -3 12 -7 45 -9 73 -3 29 -7 68 -11 85 -3 18 -8 49 -10 68 -3
19 -7 46 -9 60 -1 14 -6 49 -10 79 -4 30 -9 63 -11 75 -2 12 -7 45 -10 75 -3
30 -8 64 -10 75 -5 21 -13 87 -19 141 -1 17 -4 30 -5 30 -1 0 -3 17 -5 38 -2
21 -6 55 -10 75 -4 20 -9 52 -11 71 -3 36 -10 80 -18 120 -3 12 -8 43 -10 67
-3 24 -8 54 -11 66 -3 13 -7 39 -10 58 -3 19 -8 58 -11 85 -4 28 -8 60 -8 73
-1 12 -3 22 -6 22 -4 0 -6 10 -6 23 -1 12 -11 83 -23 157 -12 74 -23 149 -25
165 -19 138 -39 231 -58 258 -11 15 -17 27 -14 27 4 0 -5 18 -19 40 -14 22
-25 46 -25 54 0 7 -7 19 -15 26 -8 7 -13 16 -10 20 8 12 -84 100 -105 100 -5
0 -10 3 -10 8 0 4 -17 18 -37 32 -20 14 -46 33 -57 42 -12 10 -51 40 -88 68
l-68 51 -1 -38z"/>
<path d="M8118 14843 c-2 -5 -3 -24 -1 -43 1 -19 4 -82 7 -140 3 -58 7 -159
10 -225 4 -66 9 -169 12 -230 3 -60 7 -162 10 -225 2 -63 6 -146 8 -185 4 -69
14 -288 22 -475 11 -282 20 -450 29 -548 6 -70 14 -174 21 -267 11 -155 22
-311 29 -395 3 -36 7 -92 10 -125 2 -33 7 -103 11 -155 4 -52 7 -110 7 -127 1
-18 4 -33 7 -33 3 0 5 -24 6 -53 0 -28 4 -92 7 -142 4 -49 9 -112 11 -140 2
-27 7 -79 10 -115 17 -199 20 -241 20 -297 1 -35 4 -63 7 -63 3 0 7 -32 8 -72
1 -39 4 -74 5 -77 2 -3 7 -33 11 -66 11 -92 12 -100 14 -100 1 0 4 -16 7 -35
2 -19 6 -48 9 -65 3 -16 8 -48 11 -70 5 -42 11 -77 14 -85 1 -3 2 -8 1 -12 0
-4 4 -30 9 -57 5 -28 12 -72 15 -98 4 -26 9 -59 11 -73 3 -14 7 -42 9 -62 3
-20 7 -49 9 -65 11 -62 28 -170 32 -203 2 -19 9 -57 14 -85 5 -27 12 -70 15
-95 2 -25 7 -58 10 -75 4 -16 8 -46 10 -65 5 -52 19 -146 29 -200 2 -14 8 -52
11 -85 14 -111 16 -121 40 -205 9 -30 18 -62 20 -70 2 -8 18 -62 35 -120 62
-207 91 -305 94 -315 1 -5 11 -37 21 -70 10 -33 20 -64 21 -70 7 -26 16 -62
21 -85 3 -14 10 -30 15 -37 5 -7 7 -17 3 -23 -3 -5 -2 -10 3 -10 5 0 9 -6 9
-12 1 -12 52 -186 73 -248 5 -14 9 -18 10 -10 2 24 8 117 15 230 3 58 7 130
10 160 2 30 6 102 10 160 3 58 8 132 10 165 3 33 7 105 11 160 12 224 26 450
40 660 3 44 7 116 9 160 2 44 6 121 9 170 4 50 9 122 11 160 2 39 7 113 11
165 3 52 7 127 9 165 2 39 6 107 9 153 4 45 8 119 11 165 9 156 16 241 21 249
3 4 0 8 -6 8 -6 0 -8 5 -4 12 4 6 8 36 10 67 5 99 13 236 14 236 2 0 13 215
14 272 1 35 3 63 6 63 3 0 5 21 6 48 0 45 10 223 19 342 2 30 7 102 10 160 9
154 14 235 20 325 2 44 7 130 10 190 8 141 13 220 15 220 1 0 3 36 5 80 3 86
13 252 20 350 9 122 23 346 29 473 3 45 8 91 11 102 4 12 2 20 -5 20 -6 0 -8
5 -3 12 4 7 8 31 10 53 1 22 5 85 8 140 5 95 8 145 19 310 2 39 7 126 11 195
4 69 9 143 11 165 2 22 6 86 9 143 l5 102 -644 0 c-355 0 -646 -3 -648 -7z"/>
<path d="M10718 14762 c-9 -2 -14 -10 -12 -20 2 -9 5 -52 7 -95 2 -42 7 -80
10 -83 4 -4 2 -14 -3 -24 -5 -10 -7 -20 -3 -23 3 -4 7 -37 9 -74 1 -38 6 -106
9 -153 3 -47 8 -125 11 -175 2 -49 7 -121 9 -160 3 -38 7 -110 10 -160 3 -49
7 -117 10 -150 5 -55 12 -193 20 -355 2 -36 4 -65 5 -65 1 0 3 -29 5 -65 2
-57 7 -136 21 -350 2 -30 6 -100 9 -155 3 -55 7 -127 10 -160 2 -33 7 -105 10
-160 3 -55 8 -134 11 -175 3 -41 8 -113 10 -160 10 -179 13 -238 19 -315 3
-44 8 -120 10 -170 9 -156 15 -258 20 -325 2 -36 7 -110 10 -165 3 -55 8 -131
10 -170 3 -38 7 -106 10 -150 3 -44 8 -116 11 -160 3 -44 7 -120 9 -170 2 -49
4 -90 5 -90 2 0 3 -12 15 -225 7 -128 13 -232 20 -330 4 -70 17 -298 19 -342
0 -16 4 -28 8 -28 4 0 3 -11 -2 -24 -5 -13 -7 -26 -4 -29 2 -2 7 -37 9 -78 3
-41 7 -108 10 -149 2 -41 7 -115 10 -165 3 -49 8 -128 11 -175 2 -47 6 -116 9
-155 4 -79 12 -209 21 -335 4 -47 6 -102 6 -123 0 -20 4 -40 9 -43 5 -3 5 -13
-1 -23 -5 -10 -7 -20 -5 -23 4 -4 17 -181 19 -270 1 -36 14 -25 23 20 9 45 8
43 16 62 7 18 60 191 63 205 1 6 10 37 20 70 10 33 19 65 21 70 2 10 9 34 83
280 23 77 43 147 45 155 2 8 18 62 35 120 18 58 34 113 36 123 11 47 14 64 19
111 5 50 10 82 20 141 7 39 12 72 25 170 6 44 13 91 16 105 2 14 7 49 9 79 3
30 7 57 10 60 4 7 17 101 19 134 0 9 3 17 6 17 3 0 5 15 6 33 0 17 4 50 8 72
3 22 9 54 11 70 3 17 7 44 10 60 6 34 15 98 20 135 6 44 15 104 21 130 3 14 7
39 9 55 4 44 15 118 20 135 2 8 7 39 10 69 3 30 8 57 9 60 6 9 19 109 22 161
1 25 3 45 4 45 1 0 3 27 5 60 3 54 9 131 20 255 3 42 14 181 20 260 10 135 16
210 20 245 2 22 7 83 11 135 3 52 8 111 10 130 6 69 17 236 18 287 1 29 3 53
6 53 3 0 6 17 6 38 1 34 11 199 19 302 2 25 6 79 9 120 3 41 8 104 11 140 5
70 13 209 20 355 13 273 17 359 20 447 1 53 6 101 9 107 4 6 1 11 -6 11 -8 0
-9 3 -3 8 6 4 10 39 10 77 0 39 3 82 7 97 3 15 2 30 -3 34 -5 3 -7 10 -3 16 3
5 8 53 10 106 3 53 7 142 9 197 11 237 17 396 18 480 l2 90 -630 0 c-347 0
-638 -1 -647 -3z"/>
</g>
</svg>
