<svg width="98" height="98" viewBox="0 0 98 98" fill="none" xmlns="http://www.w3.org/2000/svg">
<circle cx="49" cy="49" r="48" stroke="#A01100" stroke-width="2"/>
<path d="M21.9583 25.3533V24.88H31.2475V76H26.6325V29.495H26.1C24.8378 29.495 23.8319 29.1203 23.0825 28.3708C22.3331 27.6214 21.9583 26.6156 21.9583 25.3533ZM36.0335 33.4592C36.0335 30.7769 36.8421 28.6272 38.4594 27.01C40.0766 25.3928 42.2263 24.5842 44.9085 24.5842H48.4585C51.1408 24.5842 53.2905 25.3928 54.9077 27.01C56.5249 28.6272 57.3335 30.7769 57.3335 33.4592V44.5825C57.3335 46.3575 56.8996 47.7775 56.0319 48.8425C55.1641 49.9075 53.8427 50.44 52.0677 50.44H52.0085V50.4992H52.0677C53.8427 50.4992 55.1641 51.0317 56.0319 52.0967C56.8996 53.1617 57.3335 54.5817 57.3335 56.3567V67.4208C57.3335 70.1031 56.5249 72.2528 54.9077 73.87C53.2905 75.4872 51.1408 76.2958 48.4585 76.2958H44.9085C42.2263 76.2958 40.0766 75.4872 38.4594 73.87C36.8421 72.2528 36.0335 70.1031 36.0335 67.4208V56.3567C36.0335 54.5817 36.4674 53.1617 37.3352 52.0967C38.203 51.0317 39.5244 50.4992 41.2994 50.4992H41.3585V50.44H41.2994C39.5244 50.44 38.203 49.9075 37.3352 48.8425C36.4674 47.7775 36.0335 46.3575 36.0335 44.5825V33.4592ZM44.8494 48.1325H48.5177C49.7799 48.1325 50.7858 47.7578 51.5352 47.0083C52.2846 46.2589 52.6594 45.2531 52.6594 43.9908V33.3408C52.6594 32.0786 52.2846 31.0728 51.5352 30.3233C50.7858 29.5739 49.7799 29.1992 48.5177 29.1992H44.8494C43.5871 29.1992 42.5813 29.5739 41.8319 30.3233C41.0824 31.0728 40.7077 32.0786 40.7077 33.3408V43.9908C40.7077 45.2531 41.0824 46.2589 41.8319 47.0083C42.5813 47.7578 43.5871 48.1325 44.8494 48.1325ZM40.7077 56.8892V67.5392C40.7077 68.8014 41.0824 69.8072 41.8319 70.5567C42.5813 71.3061 43.5871 71.6808 44.8494 71.6808H48.5177C49.7799 71.6808 50.7858 71.3061 51.5352 70.5567C52.2846 69.8072 52.6594 68.8014 52.6594 67.5392V56.8892C52.6594 55.6269 52.2846 54.6211 51.5352 53.8717C50.7858 53.1222 49.7799 52.7475 48.5177 52.7475H44.8494C43.5871 52.7475 42.5813 53.1222 41.8319 53.8717C41.0824 54.6211 40.7077 55.6269 40.7077 56.8892ZM64.7617 48.1325H71.3884V40.3225H76.0626V48.1325H82.6892V52.8067H76.0626V60.6167H71.3884V52.8067H64.7617V48.1325Z" fill="#A01100"/>
</svg>
