<svg width="29" height="63" viewBox="0 0 29 63" fill="none" xmlns="http://www.w3.org/2000/svg">
<path d="M3.23721 0.809302L3.50698 0.269767L3.64186 0.674419L3.91163 1.21395L4.04651 2.02326L4.1814 3.91163L4.31628 11.6V18.614V23.7395L4.58605 25.6279L4.85581 26.3023L5.12558 26.707L5.66512 26.8419H6.06977H6.87907L7.4186 26.707L8.09302 26.4372L8.22791 28.7302L8.76744 33.7209L9.17209 37.9023L9.44186 38.7116L10.2512 39.2512L11.0605 39.5209L12.1395 39.6558L12.5442 35.7442L12.814 31.0233L13.0837 26.8419H15.7814L15.9163 29.2698L16.186 33.7209V36.4186L16.3209 38.5767L16.4558 39.1163L16.7256 39.386L16.9953 39.6558L17.4 39.7907H17.9395L18.3442 39.6558L19.0186 39.1163L19.2884 38.7116L19.4233 38.1721L19.5581 37.3628L19.8279 35.2047L20.2326 32.1023L20.5023 29.6744L20.907 26.4372L21.3116 26.5721L21.8512 26.707H22.5256H23.0651L23.7395 26.5721L24.2791 26.1674L24.5488 25.3581L24.6837 24.1442V0L25.7628 0.809302L26.1674 1.6186L26.707 5.12558L27.5163 11.0605L28.3256 17.9395L28.5953 20.2326L29 28.3256V31.6977L28.7302 34.3953L28.0558 37.3628L26.5721 40.1953L24.5488 42.0837L22.3907 43.9721L20.3674 46.1302L19.1535 48.1535L18.4791 49.6372L18.0744 50.8512L17.8047 51.9302L17.6698 52.8744L17.5349 54.0884V55.8419L17.6698 57.8651L17.8047 58.9442L17.9395 60.0233L18.0744 61.1023L18.2093 61.7767V62.4512H10.9256V61.7767L11.0605 61.1023L11.1953 60.0233L11.3302 58.9442L11.4651 57.8651V55.8419V54.0884L11.3302 52.8744L11.1953 51.9302L10.9256 50.8512L10.5209 49.6372L9.84651 48.1535L8.49767 46.1302L6.74419 43.9721L4.58605 42.0837L2.69767 40.0605L1.07907 37.3628L0.404651 34.3953L0.134884 31.6977L0 28.3256L0.269767 20.2326L0.539535 17.9395L1.21395 11.0605L2.15814 5.12558L2.96744 1.6186L3.23721 0.809302Z" fill="#FFD654"/>
<path d="M12.4093 16.5907H8.36279L8.63256 22.5256L8.90233 26.1674L9.1721 29.5395L9.71163 33.0465L9.9814 34.9349L10.6558 37.2279L11.0605 38.5767L12.4093 16.5907Z" fill="#FFD654"/>
<path d="M16.4559 16.8605H20.5024L20.2327 22.7954L19.9629 26.4372L19.6931 29.8093L19.1536 33.3163L18.8838 35.2047L18.2094 37.4977L17.8048 38.8465L16.4559 16.8605Z" fill="#FFD654"/>
</svg>
